<?xml version="1.0" encoding="utf-8"?>
<!-- Svg Vector Icons : http://www.onlinewebfonts.com/icon -->
<!DOCTYPE svg PUBLIC "-//W3C//DTD SVG 1.1//EN" "http://www.w3.org/Graphics/SVG/1.1/DTD/svg11.dtd">
<svg version="1.1" xmlns="http://www.w3.org/2000/svg" xmlns:xlink="http://www.w3.org/1999/xlink" x="0px" y="0px" viewBox="0 0 256 256" enable-background="new 0 0 256 256" xml:space="preserve">
<metadata> Svg Vector Icons : http://www.onlinewebfonts.com/icon </metadata>
<g><g><path fill="#000000" d="M144.2,69.6L144.2,69.6L128,102.1l-16.2-32.5c-18.8-37.5-59.3-38.1-77-8c-22.3,37.9,6.9,97.8,102.7,156.8h-19c95.8-59,125-118.9,102.7-156.8C203.5,31.6,163,32.1,144.2,69.6L144.2,69.6z M123.4,53.4c1.6,2.5,3.1,5.3,4.6,8.1c1.4-2.9,3-5.6,4.6-8.1c0,0,4.6-7.1,6.6-9c63.7-75.2,210.4,53.1-11.2,189.5C-93.6,97.5,53.1-30.8,116.8,44.4C119,46.4,123.4,53.4,123.4,53.4z"/></g></g>
</svg>